<svg id="图层_1" data-name="图层 1" xmlns="http://www.w3.org/2000/svg" viewBox="0 0 113.5 73.9"><defs><style>.cls-1{fill:#320102;}.cls-2{fill:#fefefe;}.cls-3{fill:#edb875;}.cls-4{fill:#fdfbfd;}.cls-5{fill:#eeb976;}.cls-6{fill:#eeba77;}.cls-7{fill:#fefdfd;}.cls-8{fill:#e2af73;}.cls-9{fill:#ad8065;}.cls-10{fill:#3d0b08;}.cls-11{fill:#f9ecdd;}.cls-12{fill:#33070b;}.cls-13{fill:#603937;}.cls-14{fill:#360404;}.cls-15{fill:#68373a;}.cls-16{fill:#7e4a4d;}</style></defs><title>sticker</title><path class="cls-1" d="M7.3,73.2a41.9,41.9,0,0,1,.9-10,13.2,13.2,0,0,1,2.1-4.5c2.7-3.3,5.1-7,8.2-10l5.2-5.1a16.1,16.1,0,0,1,3.1-1.9c.9-.4.7-.7.1-1.2-2.7-1.9-3.6-4.7-3.5-7.9,0-.9,1.1-1.7,2.2-1.8a6.4,6.4,0,0,1,3.3.8c.7.4,1.2.6,1.2-.7a7,7,0,0,1,.8-2.7c.6-1.4,3.2-1.5,4.4-.4s2,3.5,2.8,5.4a28.3,28.3,0,0,1,1.1,3.1c.1.6.4.7,1,.6,3.8-.8,7.5-1.6,11.4-2.2l3.8-.3c4.3-.6,8.6-1.6,13-1.2,6.2.5,12.4.7,18.2,3.5.7.3.8,0,1-.5a9.9,9.9,0,0,1,4-5,3.3,3.3,0,0,1,3.2-.3,2.8,2.8,0,0,1,1.3,2.8c-.2,1.2,0,1.5,1.4,1.2a3.7,3.7,0,0,1,4.1,1.4c1,1.4.6,2.9,0,4.3A15.7,15.7,0,0,1,98.8,45c-.5.6-.4,1,0,1.6a51.2,51.2,0,0,1,6.4,10.8,43.1,43.1,0,0,1,3.5,17c0,.9.4,1.2,1.1,1.5,4.5,1.8,8.2,4.5,10.2,9.2a12.4,12.4,0,0,1,.5,6.9,15.6,15.6,0,0,1-1.3,4,9.1,9.1,0,0,1-5.4,4.8c-1.3.5-2-.4-1.9-1.7a8.2,8.2,0,0,0-1.9-6c-1.1-1.4-2.6-2.1-4-3.1s-.5-.1-.7.2a8.7,8.7,0,0,1-5.6,3.7c-1.8.4-3.5,1-5.3,1.5-3.4,1-7,1.2-10.5,1.7a25.5,25.5,0,0,1-3.9.2l-32.3.2c-1.6,0-3.1.2-4.7.3a35.5,35.5,0,0,1-8-.6c-4-.6-8-.6-12-1.2l-3.3-.2a7.5,7.5,0,0,1-4.5-1.6,7,7,0,0,0-2.1-1.1A4.2,4.2,0,0,1,11,90.7c-.1-.2-.1-.5-.3-.7C8.5,87.3,8,84.1,7.6,80.7A62.7,62.7,0,0,1,7.3,73.2Z" transform="translate(-7.3 -27.1)"/><path class="cls-2" d="M11,65.7c1.4-2.6,2.2-5.5,3.9-8a64.2,64.2,0,0,1,8.5-9.6A20.9,20.9,0,0,1,28.6,44a1.5,1.5,0,0,1,.7-.3c1.2-.3.9-.8.8-1.8a6.2,6.2,0,0,0-2.4-4,6.6,6.6,0,0,1-1.9-3.7c-.1-.8.2-1.1,1-.8s1.3.5,1.6,1.1c1.2,2.1,3.7,2.8,5.2,4.6a9.3,9.3,0,0,0-.5-2.9,9.4,9.4,0,0,1-.2-5.5.6.6,0,0,1,.4-.6c.4-.1.5.3.6.5a22.2,22.2,0,0,1,2.4,6c.5,1.2,1.3,2.1,1.7,3.3s.9.3,1.3.2a63.1,63.1,0,0,1,8.6-2c3.9-.7,7.8-1,11.7-1.6a36.5,36.5,0,0,1,8.7-.7c5.4.5,10.9.7,15.9,2.9a7.1,7.1,0,0,1,2.7,1.8c.8,1,1.7.7,2.2-.4s.7-3.6,2.1-5l1.1-1.3c.3-.3.7-.6,1.1-.4s.3.8.2,1.2A34.7,34.7,0,0,1,92,38.7a2.5,2.5,0,0,0-.4.7c-.3.5-.8,1.2-.3,1.6a1.8,1.8,0,0,0,2-.1c1.3-.7,2.1-1.9,3.3-2.7l1.1-.7a1.2,1.2,0,0,1,1.5.2,1,1,0,0,1,.1,1.4,10.9,10.9,0,0,1-1.9,3.3A6.8,6.8,0,0,0,95.9,45c-1.9,1.1-1.6,2.6-.5,3.5a19.8,19.8,0,0,1,5.2,8.2,7.1,7.1,0,0,0,.8,1.5,5,5,0,0,1,.5,4.9,12.7,12.7,0,0,1-5.2,5.8c-2,1.2-4.2,1.3-6.1,2.3s-2.9.5-4.3.7a6.5,6.5,0,0,0-2.3.6,9.8,9.8,0,0,1-3.4,1.2c-4.6.8-9.2.1-13.8-.3h-.4a7.8,7.8,0,0,1-5.2-.7h-.8a50,50,0,0,1-5.5.1,8.7,8.7,0,0,0-5.1,1.5,5.1,5.1,0,0,1-2.1,1,4.4,4.4,0,0,0-2.5,2.3A51.3,51.3,0,0,0,41.8,84l-1.2,2.4c-.3.7-.9,1.3-1.7,1s-.8-1.1-.6-1.8,0-1.1-.3-1.7c-1.3-2.4-3.6-2.1-5.7-1.9a5.4,5.4,0,0,1-2.2-.1c-1.4-.4-2.8-.1-4.1-.2a1.1,1.1,0,0,0-1.3.7,2,2,0,0,1-.9.9,1.4,1.4,0,0,0-.7,1.9c.1.9,0,1.8.1,2.7s.3,1-.2,1.2-.7-.3-1.1-.4a6.7,6.7,0,0,1-1.2-2c-1.5-3-1.8-6.3-2-9.6a10.9,10.9,0,0,0-.3-2.6,2.9,2.9,0,0,0-1.7-2.3,3.1,3.1,0,0,1-1.6-1.8c-.2-1.7-1.6-2.2-2.8-2.7S10.8,66.7,11,65.7Z" transform="translate(-7.3 -27.1)"/><path class="cls-3" d="M103.1,60.4a39.9,39.9,0,0,1,2.7,12.3c0,2.7.3,5.4-.2,8a20.7,20.7,0,0,1-2.9,8.1,6.9,6.9,0,0,1-4.6,2.7,31.7,31.7,0,0,0-5,1.5,11.3,11.3,0,0,1-3.2.6,10.7,10.7,0,0,0-2.5.3,27.4,27.4,0,0,1-5,.7,4.4,4.4,0,0,1-1.6.2H69.9a7.6,7.6,0,0,0-2.6,0H46.6c-1.1,0-1.2-.2-.9-1.2l.3-.8a2.3,2.3,0,0,0-.9-2.4,1.7,1.7,0,0,0-2.4-.1,2.3,2.3,0,0,0-.8,2.5c.2.8,1,1.3,1,2.1s-1.3.5-1.9.3a9.7,9.7,0,0,0-3.4-.5c-2.3-.1-4.5-.7-6.7-.9.2-.6.8-.5,1.3-.5A9.2,9.2,0,0,0,39.5,89a42.1,42.1,0,0,0,2.9-5.6c.8-1.8,1.6-3.6,2.5-5.4A7.1,7.1,0,0,1,48,75.4a14.8,14.8,0,0,0,2.1-1.3,4.3,4.3,0,0,1,3.2-1.2,98.3,98.3,0,0,1,10.9.5c3.7.4,7.5.8,11.2.9a28.3,28.3,0,0,0,11.5-2.1,34.1,34.1,0,0,1,4.6-1,16.6,16.6,0,0,0,9.2-5.3,6.7,6.7,0,0,0,2-4.5A1.8,1.8,0,0,1,103.1,60.4Z" transform="translate(-7.3 -27.1)"/><path class="cls-4" d="M103.1,60.4c.1,3.7-2,6.1-4.7,8.1a18.4,18.4,0,0,1-9,3.4c-1.7.1-3.2,1-4.8,1.4a34.9,34.9,0,0,1-10.7,1.2c-4.5-.1-8.9-1-13.3-1.1l-7.7-.2a2.7,2.7,0,0,0-1.8.5c-1.4,1.4-3.3,2-4.8,3.1a6.4,6.4,0,0,0-1.9,2.9c-1.3,3.2-2.9,6.2-4.4,9.3a4.8,4.8,0,0,1-.9,1.1,10.2,10.2,0,0,1-8.2,3.5,1.1,1.1,0,0,1-1.3.1c-.8-.4-1.7-.1-2.5-.3s-1.6-.1-1.4-1.2.5-1.3-.1-1.9a4.5,4.5,0,0,1-1.3-5c.6-1.7,2-2.7,3.6-2.3s2.5,1.4,2.3,3.6a5.4,5.4,0,0,1-1.1,2.6,1.6,1.6,0,0,0,.4,2.3c.7.5,1.3.4,1.9-.4a2.1,2.1,0,0,0-.1-1.9c-1-1.3-.5-2.7-.4-4.1a2.3,2.3,0,0,1,2.4-1.7c1.4.1,3,.2,3.7,1.7a5.1,5.1,0,0,1-.4,4.9,1.4,1.4,0,0,1-1,.7c-.4.2-.8.2-1,.7a2,2,0,0,0,2.5-1.2,5.4,5.4,0,0,0-.2-6.1,1.4,1.4,0,0,0-.8-.7c-1.3-.2-2.6-1.1-4.1-.4s-1.1.3-1.6.2l-.3-.2c-2.7-1.6-4.8-1.1-6.3,1.4l-.4.5c-.2.2-.3.3-.5.2s-.4-1.6.6-1.9.7-.4.8-.7,1.3-1.3,2.3-1.2,3-.2,4.4.5,1.1-.2,1.7-.3,2.6.3,3.9.3.4,0,.5.2a7.3,7.3,0,0,0,1.6,2.3.9.9,0,0,1,0,1.2c-.3.5-.4,1.3.2,1.6s1.3-.2,1.5-.8A45.1,45.1,0,0,1,43.3,80c1.2-2.2,2.1-5,5.2-5.4.2,0,.4-.3.6-.4A9.5,9.5,0,0,1,55,72.3c1.9-.1,3.7.2,5.6-.2a2.3,2.3,0,0,1,1.5.5,5.4,5.4,0,0,0,3.3.5,10.8,10.8,0,0,1,4,.2,51,51,0,0,0,7.8.4,11,11,0,0,0,6-1.1c2.1-1.2,4.3-1.1,6.4-1.4a4.8,4.8,0,0,0,1.7-.5,4.8,4.8,0,0,1,2.8-.8,1.5,1.5,0,0,0,1.4-.8c.3-.5,1-.6,1.5-.9a9,9,0,0,0,4.5-4.9c1.1-2.4.2-3.9-.9-5.8a31.2,31.2,0,0,1-1.8-4.2,13.5,13.5,0,0,0-3.1-4,4.3,4.3,0,0,1-1.5-2.1c-.4-.9.5-1.6.9-2.4s.5.1.8.2-.4,2.4.6,3.7a50.5,50.5,0,0,1,6.4,10.7C103,59.7,103,60.1,103.1,60.4Z" transform="translate(-7.3 -27.1)"/><path class="cls-5" d="M11,65.7c.1.9.5,1.3,1.5,1.7s2.8.8,2.9,2.7a1.9,1.9,0,0,0,1.4,1.7c1.4.6,1.7,1.8,2,3.1a28.5,28.5,0,0,1,.4,4.1,25.9,25.9,0,0,0,1.7,7.8c-.4.3-.8,0-1.2,0s-1,0-1.3.6-.2.2-.2.3a2.3,2.3,0,0,0-.8,2.8c0,.2.1.5,0,.7a3.1,3.1,0,0,1-3.2-1.8c-1.7-.8-2.1-2.5-2.5-4.1a35.3,35.3,0,0,1-1.5-12.1,23,23,0,0,1,.3-2.6A38.7,38.7,0,0,0,11,65.7Z" transform="translate(-7.3 -27.1)"/><path class="cls-6" d="M118.5,85.2a14.8,14.8,0,0,1-1.2,10.9c-.6,1.4-2,2-3.1,2.8s-.6-.1-.6-.5c0-3-1.4-5.3-3.4-7.4a19.6,19.6,0,0,0-3-2c-.6-.4-.9-.8-.5-1.6a25.1,25.1,0,0,0,1.6-4.6,3.7,3.7,0,0,0,1.7,1.3c1.8.7,3.2,2.1,5.2,2.3S117.7,86.4,118.5,85.2Z" transform="translate(-7.3 -27.1)"/><path class="cls-7" d="M118.5,85.2c0,.8-.5,1.2-1.3,1.4s-4-.3-5.8-1.4L109,83.9a1,1,0,0,1-.7-1.1,25.9,25.9,0,0,0,.4-4.8c0-.7.3-.9.9-.7a15.7,15.7,0,0,1,8,6.6A6,6,0,0,0,118.5,85.2Z" transform="translate(-7.3 -27.1)"/><path class="cls-8" d="M14.2,89.4A3.4,3.4,0,0,0,17.4,91c.3-.1.5.1.7.2a2.4,2.4,0,0,0,3.1-.8A2.7,2.7,0,0,0,20,87.2c-.7-.3-1.2.4-1.9.3s.8-1,1.6-1l1.2.3a14,14,0,0,1,1,1.6,8,8,0,0,1,1.5,2.1A7.2,7.2,0,0,0,25.8,93c.2.1.7.2.2.5a2.5,2.5,0,0,1-1.2-.1l-4.2-.3a4.7,4.7,0,0,1-3.5-1.2,3.2,3.2,0,0,0-1.6-.9A1.6,1.6,0,0,1,14.2,89.4Z" transform="translate(-7.3 -27.1)"/><path class="cls-9" d="M24.8,93.4h1.4a10.3,10.3,0,0,1,3.5,0c.4.3.8.1,1.2.2l4.8.7c1.8.3,3.6.2,5.5.6.4.2,1.2.5,1.6-.3s2.6-.6,3.1-2a.4.4,0,0,1,.4-.2,1.4,1.4,0,0,1-.2,1.1c-.7,1-.2,1.1.8,1.1H67.2c.9,0,1.8-.6,2.6,0a3.4,3.4,0,0,1-2,.3H46.9a2.9,2.9,0,0,0-1.3.1h0c-1.7.1-3.4.7-5.2.2-3.5-.4-7.1-1-10.7-1.2A20.5,20.5,0,0,1,24.8,93.4Z" transform="translate(-7.3 -27.1)"/><path class="cls-10" d="M45.6,95c.4-.3.9-.1,1.3-.1H65.7a18.4,18.4,0,0,0,4.1-.3H82.4a2.1,2.1,0,0,1-1.5.5Z" transform="translate(-7.3 -27.1)"/><path class="cls-10" d="M40.4,95.2l5.2-.2C43.9,95.4,42.2,95.9,40.4,95.2Z" transform="translate(-7.3 -27.1)"/><path class="cls-11" d="M29.7,93.4H26.2a5.9,5.9,0,0,1-3.4-3.5c-.2-.6-.8-.9-.9-1.5s.6.4,1.2.8a14.5,14.5,0,0,1-.2-4.1c.7-.6.9-1.7,1.7-2.4a4.3,4.3,0,0,1,5.6.3c-.5.3-.9-.1-1.4-.2-3-1-5.5,1-5.4,4.2a6.7,6.7,0,0,0,2,4.5,1.8,1.8,0,0,1,.5.7c-.2,1,.6.8,1.2.9S28.9,92.8,29.7,93.4Z" transform="translate(-7.3 -27.1)"/><path class="cls-10" d="M46.3,92.4c-.5.8-.7,1.7-1.8,2.1a2.5,2.5,0,0,1-1.7.1,2.8,2.8,0,0,1-.5-4.4,2,2,0,0,1,2.2-.6C45.6,90.2,46.5,91,46.3,92.4Z" transform="translate(-7.3 -27.1)"/><path class="cls-12" d="M25.9,92.2a4.7,4.7,0,0,1-2.3-2.7,5.3,5.3,0,0,1-.1-4.6c1.3-2.6,3.1-3.3,5.9-2.2l.8.3h0c.6.4,1.1-.2,1.7-.3s2.9,0,4.3.3,1.3,1.4,1.7,2.3a5.6,5.6,0,0,1-1.8,6.4l-.5.2c-.6,0-1.3.4-1.5-.4s.5-.9,1-1,1.4-.8,1.7-1.6a4.4,4.4,0,0,0,.2-2.8c-.2-.9-.5-1.8-1.5-2s-2.7-.7-4,.2-.2,1-.3,1.5-.5,2.2.4,3.3.3,1.4.1,2.2-2.3.5-2.7,0a1.8,1.8,0,0,1,.4-2.6c.6-.6.3-1.4.5-2,.2-2.5-.8-3.7-3-3.5s-2.8,2.4-2.6,4a4.4,4.4,0,0,0,1.8,3.2C27.2,91.1,27.1,91.6,25.9,92.2Z" transform="translate(-7.3 -27.1)"/><path class="cls-13" d="M29.9,86.7a2.2,2.2,0,0,1-.7,2.4c-.7.6-.5,1.3-.1,2a1.4,1.4,0,0,0,.4.4c.7-.6,1.5,0,2.2-.2s-1.2,1.1-2.2.6-1.5-2-.7-2.8A5.3,5.3,0,0,0,29.9,86.7Z" transform="translate(-7.3 -27.1)"/><path class="cls-11" d="M31.9,82.7c-.6.1-1,1.4-1.7.3Z" transform="translate(-7.3 -27.1)"/><path class="cls-14" d="M18.1,87.5c1.2-.9,2-.9,2.8,0a2.7,2.7,0,0,1,.2,3.5,2.3,2.3,0,0,1-3.2.4,1,1,0,0,1-.5-.4l-.2-.5a2.7,2.7,0,0,1,.9-3Z" transform="translate(-7.3 -27.1)"/><path class="cls-8" d="M18.1,87.5a3.6,3.6,0,0,0-.9,3C16.6,89.1,16.9,88.4,18.1,87.5Z" transform="translate(-7.3 -27.1)"/><path class="cls-15" d="M43.2,92.7a.7.7,0,0,1-.4-.6c.1-.3.2-.4.5-.3a.5.5,0,0,1,.3.5C43.7,92.6,43.5,92.7,43.2,92.7Z" transform="translate(-7.3 -27.1)"/><path class="cls-16" d="M19.7,91.1c-.8.2-1.3.3-1.7-.2s-.2-.5,0-.5S19,90.7,19.7,91.1Z" transform="translate(-7.3 -27.1)"/></svg>