<?xml version="1.0" encoding="utf-8"?>
<!-- Generator: Adobe Illustrator 24.0.1, SVG Export Plug-In . SVG Version: 6.00 Build 0)  -->
<svg version="1.1" id="图层_1" xmlns="http://www.w3.org/2000/svg" xmlns:xlink="http://www.w3.org/1999/xlink" x="0px" y="0px"
	 viewBox="0 0 128 128" style="enable-background:new 0 0 128 128;" xml:space="preserve">
<style type="text/css">
	.st0{fill:#363636;}
	.st1{fill:#FFFFFF;}
</style>
<title>画板 1</title>
<g>
	<path class="st0" d="M14.9,83.4c-1.7,0-5.7,0-7.5-3.7c-1.3-2.6-0.9-5.6,1-8.3c2.5-3.4,5.7-5.2,8.9-6.9l0.9-0.5
		c1.5-0.9,2.9-1.5,4.1-2.1c1.1-0.5,2-1,3-1.5c-1.3-1.8-2.9-3.5-4.6-5l-0.1-0.1c-0.7-0.7-1.6-1.3-2.4-1.9c-0.6-0.5-1.2-0.9-1.9-1.4
		c-2.4-1.8-3.7-4.4-3.5-7c0.2-2.6,1.8-5,4.4-6.5c1.8-1,4-1.6,6.4-1.6c4.5,0,8.8,2,11.5,5.5c3.6,4.7,6.4,10,8.3,15.7
		c1.4,4,0.7,7.9-2.2,11.5l-0.1,0.1c-2.6,2.9-5.6,5.3-8.9,7.2c-4.1,2.5-9,5.3-14.8,6.3l-0.1,0l-2,0.2H14.9z"/>
	<path class="st1" d="M23.5,40.3c3.1,0,6.5,1.2,8.7,4.1c3.4,4.4,6,9.4,7.7,14.7c1.1,3.1,0.4,5.7-1.6,8.2c-2.3,2.6-5,4.8-8,6.5
		c-4.3,2.6-8.7,5-13.7,5.9l-1.7,0.2c-2,0-3.6-0.2-4.4-1.8c-0.8-1.6-0.3-3.3,0.7-4.7c2.2-3,5.4-4.6,8.6-6.4c3.2-1.8,5.7-2.7,8.4-4.4
		c2.7-1.7,1.6-1.5,0.7-3c-1.7-2.6-3.7-4.9-6-6.9c-1.4-1.3-3-2.3-4.5-3.5c-3.1-2.4-2.9-5.8,0.5-7.8C20.1,40.7,21.7,40.3,23.5,40.3
		 M23.5,33.3L23.5,33.3c-3,0-5.8,0.7-8.1,2.1c-3.7,2.1-5.9,5.6-6.1,9.3c-0.2,3.8,1.5,7.4,4.8,10c0.7,0.5,1.3,1,1.9,1.5
		c0.8,0.6,1.6,1.1,2.1,1.7l0.1,0.1l0.1,0.1c0.4,0.4,0.9,0.8,1.3,1.2c-1,0.5-2.1,1-3.2,1.7l-0.9,0.5c-3.3,1.8-7.1,3.9-10,7.9l0,0l0,0
		c-2.7,3.7-3.1,8.2-1.3,11.9c2.8,5.7,8.7,5.7,10.7,5.7h0.4l0.4,0l1.7-0.2l0.2,0l0.2,0c6.3-1.1,11.6-4.1,16-6.7
		c3.6-2.1,6.9-4.7,9.7-7.9l0.1-0.1l0.1-0.1c4.5-5.7,4-11.2,2.8-14.8c-2-6.1-4.9-11.7-8.8-16.8C34.4,35.8,29.1,33.3,23.5,33.3
		L23.5,33.3z"/>
</g>
<g>
	<path class="st0" d="M107.3,83.6c-2.7,0-5.2-0.6-7.4-1.6c-4.5-2-8.7-4.9-12.4-8.6c-0.7-0.7-1.3-1.4-1.8-2
		c-3.1-3.5-3.4-8.7-0.7-12.6c1.6-2.6,3.5-5.1,5.7-7.6c2.6-3.2,5.6-6.3,8.9-9.3c3.1-2.9,7.3-4.7,11.8-4.9c0.2,0,0.5,0,0.7,0
		c2,0,3.8,0.6,5.4,1.6c2,1.3,3.2,3.2,3.5,5.2c0.3,2-0.4,4-1.8,5.7c-1.7,2-3.5,3.5-5.5,4.5l-7.9,4.9c-1.2,0.7-2.2,1.6-3.1,2.5
		c0.6,0.5,1.1,0.9,1.7,1.2l6.8,3.9c1.5,0.8,2.8,2.2,3.8,3.9c1.6,2.9,1.6,6.2,0.1,8.8C113.4,81.9,110.6,83.5,107.3,83.6L107.3,83.6
		L107.3,83.6z"/>
	<path class="st1" d="M112,40.3c1.2,0,2.4,0.3,3.5,1c2.2,1.5,2.6,3.8,0.9,5.8c-1.3,1.5-2.8,2.8-4.6,3.7l-8,5c-1.7,1-3.3,2.4-4.5,4
		c-1.2,1.7-1.2,2.1,0.3,3.5c0.9,0.9,1.9,1.7,3,2.3l6.7,3.9c1.1,0.6,1.9,1.5,2.5,2.6c2.1,3.8-0.2,7.9-4.5,8c-2,0-4.1-0.4-5.9-1.3
		c-4.3-1.9-8.1-4.6-11.4-7.9c-0.6-0.6-1.1-1.2-1.6-1.8c-2.1-2.4-2.3-5.9-0.5-8.5c1.6-2.6,3.4-5,5.4-7.3c2.6-3.2,5.5-6.2,8.6-9
		c2.6-2.4,6-3.8,9.6-4C111.7,40.3,111.8,40.3,112,40.3 M112,33.3L112,33.3c-0.3,0-0.6,0-1,0c-5.2,0.3-10.1,2.4-13.9,5.8
		c-3.4,3.1-6.5,6.4-9.2,9.7c-2.3,2.6-4.2,5.2-5.9,8c-3.5,5.2-3.1,12.1,1,16.8c0.6,0.7,1.2,1.4,2,2.2c4,4,8.5,7.1,13.4,9.3
		c2.6,1.3,5.7,2,8.9,2h0.1l0.1,0c4.5-0.1,8.4-2.4,10.5-6.1c2.1-3.7,2.1-8.3-0.1-12.3c-1.3-2.3-3-4.1-5.2-5.3l-4.1-2.4l6.6-4.1
		c2.4-1.2,4.5-2.9,6.4-5.2l0,0l0,0c2.1-2.5,3-5.5,2.6-8.5c-0.4-3-2.2-5.8-4.9-7.6l0,0l0,0C117.2,34,114.7,33.3,112,33.3L112,33.3z"
		/>
</g>
<g>
	<path class="st0" d="M65.6,92c-1.3,0-2.6-0.4-3.7-1.3c-1,0.6-2.1,1-3.3,1c-2,0-3.8-1.1-4.9-2.9c-1.5-2.4-2.4-4.9-2.6-7.3
		c-0.4-2.8,1.3-5.3,4-6c0.5-0.1,1-0.2,1.4-0.2c1.5,0,2.9,0.6,3.9,1.7c0.3-0.1,0.7-0.1,1.1-0.1c0.4,0,0.8,0,1.1,0.1
		c1-1.4,2.6-2.3,4.5-2.3c3,0,5.4,2.4,5.5,5.4c0.1,1.5,0.1,3.3-0.2,5.3c-0.3,2.9-2.2,5.3-5,6.3l-0.1,0C66.7,91.9,66.1,92,65.6,92z"/>
	<path class="st1" d="M67.1,78.3c1.1,0,2,0.9,2,2c0.1,1.6,0.1,3.1-0.2,4.7c-0.1,1.6-1.1,2.9-2.6,3.4c-0.3,0.1-0.5,0.1-0.7,0.1
		c-1.1,0-1.9-0.7-2.7-1.5c-0.5-0.5-0.8-0.8-1.1-0.8c-0.3,0-0.6,0.3-1.1,0.9c-0.5,0.7-1.3,1.2-2.1,1.2c-0.7,0-1.4-0.4-2-1.3
		c-1.1-1.8-1.9-3.8-2.1-5.9c-0.2-1,0.4-1.9,1.4-2.1c0.2-0.1,0.4-0.1,0.6-0.1c0.8,0,1.5,0.5,1.8,1.2c0.3,0.6,0.4,1.3,0.7,2.1
		c0.9-1,1.6-1.7,2.5-1.7c0.9,0,1.9,0.7,3.6,2.4c-0.1-0.9-0.1-1.7,0-2.6C65.1,79.2,66,78.3,67.1,78.3 M67.1,71.3
		c-2.2,0-4.2,0.8-5.7,2.1c-1.4-0.9-3.1-1.4-4.9-1.4c-0.8,0-1.5,0.1-2.3,0.3c-4.5,1.1-7.3,5.3-6.7,9.8c0.3,2.9,1.4,5.8,3.1,8.6l0,0
		l0,0c1.8,2.9,4.7,4.5,7.9,4.5c1.1,0,2.1-0.2,3.1-0.6c1.4,0.6,2.8,0.8,3.8,0.8c0.9,0,1.8-0.1,2.7-0.4l0.1,0l0.1,0
		c4-1.3,6.9-4.9,7.3-9.1c0.4-2.3,0.3-4.3,0.3-5.9C75.9,75.2,72,71.3,67.1,71.3L67.1,71.3z"/>
</g>
</svg>
