<?xml version="1.0" encoding="utf-8"?>
<!-- Generator: Adobe Illustrator 24.0.1, SVG Export Plug-In . SVG Version: 6.00 Build 0)  -->
<svg version="1.1" id="_x32_" xmlns="http://www.w3.org/2000/svg" xmlns:xlink="http://www.w3.org/1999/xlink" x="0px" y="0px"
	 viewBox="0 0 128 128" style="enable-background:new 0 0 128 128;" xml:space="preserve">
<style type="text/css">
	.st0{fill:#0097E3;}
	.st1{fill:#00519C;}
	.st2{fill:#FF74C4;}
	.st3{fill:#D4F9FF;}
	.st4{fill:#E9D900;}
	.st5{opacity:0.15;enable-background:new    ;}
	.st6{opacity:0.35;fill:#FFFFFF;}
</style>
<g>
	<g>
		<polygon class="st0" points="128,0 128,59.2 128,73.1 128,81.9 128,95.7 128,128 40.9,128 23.1,128 0,128 0,95.7 0,81.9 0,73.1 
			0,59.2 0,0 23.1,0 40.9,0 		"/>
	</g>
	<g>
		<polygon class="st1" points="40.9,0 0,40.9 0,23.1 23.1,0 		"/>
		<polygon class="st2" points="104.9,0 0,104.9 0,95.7 95.7,0 		"/>
		<polygon class="st3" points="81.9,0 0,81.9 0,73.1 73.1,0 		"/>
		<polygon class="st4" points="59.2,0 0,59.2 0,50.3 50.3,0 		"/>
		<polygon class="st1" points="128,23.1 128,40.9 40.9,128 23.1,128 		"/>
		<polygon class="st2" points="128,95.7 128,104.9 104.9,128 95.7,128 		"/>
		<polygon class="st3" points="128,73.1 128,81.9 81.9,128 73.1,128 		"/>
		<polygon class="st4" points="128,50.3 128,59.2 59.2,128 50.3,128 		"/>
	</g>
</g>
<rect x="0" class="st5" width="128" height="128"/>
<rect class="st6" width="128" height="128"/>
</svg>
