<?xml version="1.0" encoding="utf-8"?>
<!-- Generator: Adobe Illustrator 24.0.1, SVG Export Plug-In . SVG Version: 6.00 Build 0)  -->
<svg version="1.1" id="图层_1" xmlns="http://www.w3.org/2000/svg" xmlns:xlink="http://www.w3.org/1999/xlink" x="0px" y="0px"
	 viewBox="0 0 128 128" style="enable-background:new 0 0 128 128;" xml:space="preserve">
<style type="text/css">
	.st0{fill:#363636;}
	.st1{fill:#CFCFCF;}
</style>
<title>画板 1</title>
<path class="st0" d="M14.9,79.9c-2,0-3.6-0.2-4.4-1.8s-0.3-3.3,0.7-4.7c2.2-3,5.4-4.6,8.6-6.4s5.7-2.7,8.4-4.4s1.6-1.5,0.7-3
	c-1.7-2.6-3.7-4.9-6-6.9c-1.4-1.3-3-2.3-4.5-3.5c-3.1-2.4-2.9-5.8,0.5-7.8s9.8-1.5,13.3,3c3.4,4.4,6,9.4,7.7,14.7
	c1.1,3.1,0.4,5.7-1.6,8.2c-2.3,2.6-5,4.8-8,6.5c-4.3,2.6-8.7,5-13.7,5.9L14.9,79.9z"/>
<path class="st0" d="M111.5,40.3c1.4-0.1,2.8,0.2,4,1c2.2,1.5,2.6,3.8,0.9,5.8c-1.3,1.5-2.8,2.8-4.6,3.7l-8,5c-1.7,1-3.3,2.4-4.5,4
	c-1.2,1.7-1.2,2.1,0.3,3.5c0.9,0.9,1.9,1.7,3,2.3l6.7,3.9c1.1,0.6,1.9,1.5,2.5,2.6c2.1,3.8-0.2,7.9-4.5,8c-2,0-4.1-0.4-5.9-1.3
	c-4.3-1.9-8.1-4.6-11.4-7.9c-0.6-0.6-1.1-1.2-1.6-1.8c-2.1-2.4-2.3-5.9-0.5-8.5c1.6-2.6,3.4-5,5.4-7.3c2.6-3.2,5.5-6.2,8.6-9
	C104.5,41.9,107.9,40.5,111.5,40.3z"/>
<path class="st1" d="M14.8,80.7c2.5-0.2,5,0.3,7.2,1.4c1.1,0.4,1.9,1.5,2,2.7c0,1.1-1,1.8-1.9,2.4c-1.5,0.9-3.1,1.4-4.8,1.5
	c-3.6,0.4-7.1,0.3-10.4-1.4C6,87,5.3,86.3,5,85.4c-0.3-1,0.1-2.1,1-2.7C8.6,80.9,11.6,80.6,14.8,80.7z"/>
<path class="st1" d="M111.8,80.7c3.1-0.1,5.9,0.2,8.3,1.9s1.8,2.7,0.3,4s-4,2-6.3,2.2c-3.1,0.4-6.3,0-9.2-1.2
	c-0.9-0.4-1.7-1.1-2.3-1.9c-0.6-0.8-0.4-1.9,0.4-2.5c1.3-1.2,2.9-1.9,4.6-2.2C109,80.7,110.4,80.6,111.8,80.7z"/>
<path class="st0" d="M59,82.2c1.9-2.1,2.8-2.7,6.1,0.7c-0.1-0.9-0.1-1.7,0-2.6c0-1.1,0.9-2,2-2s2,0.9,2,2c0.1,1.6,0.1,3.1-0.2,4.7
	c-0.1,1.6-1.1,2.9-2.6,3.4c-1.4,0.4-2.5-0.4-3.4-1.4s-1.2-1.2-2.2,0.1s-2.9,1.8-4.1-0.1c-1.1-1.8-1.9-3.8-2.1-5.9
	c-0.2-1,0.4-1.9,1.4-2.1c1-0.3,2,0.2,2.4,1.1C58.6,80.7,58.7,81.4,59,82.2z"/>
</svg>
